<svg width="16" height="16" viewBox="0 0 16 16" fill="none" xmlns="http://www.w3.org/2000/svg">
<path d="M16 0L4.29458 14.2383C3.3239 15.4115 2.50856 16 1.84922 16C1.10255 16 0.560547 15.2534 0.224544 13.7584C0.0132093 12.7985 -0.0487912 11.5815 0.0378762 10.1055C0.124544 8.62945 0.355212 7.05821 0.728548 5.38603C1.03988 4.03381 1.54989 2.25687 2.25989 0.0533268C2.01907 1.13637 1.84247 2.32555 1.73722 3.57291C1.55055 5.84883 1.71856 7.5191 2.24123 8.58564C2.4899 9.08273 2.8319 9.33222 3.2679 9.33222C3.6159 9.33222 4.00791 9.17224 4.44391 8.85228L16 0Z" fill="#EDD603"/>
</svg>
